<?xml version="1.0" encoding="utf-8"?>
<svg width="900" height="512" viewBox="0 0 900 512" xmlns="http://www.w3.org/2000/svg">
    <defs>
        <linearGradient id="gradient1" gradientTransform="rotate(90)">
            <stop offset="0%" stop-color="#0f1729"/>
            <stop offset="100%" stop-color="#280a2a"/>
        </linearGradient>
        <linearGradient id="gradient2" gradientTransform="rotate(90)">
            <stop offset="0%" stop-color="#263a69"/>
            <stop offset="100%" stop-color="#692e69"/>
        </linearGradient>
        <linearGradient id="gradient3" gradientTransform="rotate(90)">
            <stop offset="0%" stop-color="#324c8a"/>
            <stop offset="100%" stop-color="#8a3c8a"/>
        </linearGradient>
        <linearGradient id="gradient4" gradientTransform="rotate(90)">
            <stop offset="0%" stop-color="#1b294a"/>
            <stop offset="100%" stop-color="#4a1f4a"/>
        </linearGradient>
        <linearGradient id="gradient5" gradientTransform="rotate(90)">
            <stop offset="0%" stop-color="#5480e8"/>
            <stop offset="100%" stop-color="#e885e8"/>
        </linearGradient>
        <linearGradient id="gradient6" gradientTransform="rotate(90)">
            <stop offset="0%" stop-color="#3d5da8"/>
            <stop offset="100%" stop-color="#a84ba8"/>
        </linearGradient>
    </defs>
    
    <rect width="900" height="512" fill="url(#gradient1)"/>
    
    <path d="M0,512C0,432.13268048531023,-37.5,111.6558910986821,0,32.79608291186136C37.5,-46.06372527495938,150,39.28063869073375,225,38.841150879075556C300,38.40166306741736,375,22.924678212231242,450,30.159156041912166C525,37.39363387159309,600,75.8935039704963,675,82.2480178571611C750,88.6025317438259,862.1666666666666,-3.6724243285721343,900,68.28623936190101C937.8333333333334,140.24490305237416,901.6666666666666,439.7143732269835,902,514" fill="url(#gradient2)" opacity="0.9"/>
    <path d="M0,512C0,450.6736770640222,-37.5,197.08981228333678,0,144.04206238413298C37.5,90.99431248492917,150,198.2551940354856,225,193.71350060477712C300,189.17180717406865,375,119.8137835164528,450,116.79190179988206C525,113.77002008331131,600,165.396142547563,675,175.58221030535262C750,185.76827806314225,862.1666666666666,121.50534339751192,900,177.9083083466198C937.8333333333334,234.3112732957277,901.6666666666666,457.98471805776995,902,514" fill="url(#gradient3)" opacity="0.9"/>
    <path d="M0,512C0,479.6504430527713,-37.5,352.67762854275094,0,317.90265831662805C37.5,283.12768809050516,150,322.30302950536804,225,303.35017864326267C300,284.3973277811573,375,202.55828859682006,450,204.18555314399583C525,205.8128176911716,600,301.3733926503645,675,313.1137659263172C750,324.85413920226995,862.1666666666666,241.14675378743175,900,274.6277927997122C937.8333333333334,308.1088318119927,901.6666666666666,474.10463213328535,902,514" fill="url(#gradient4)" opacity="0.9"/>
    <path d="M0,512C0,502.27058825985904,-37.5,472.76961748035984,0,453.62352955915435C37.5,434.47744163794886,150,419.89692693684344,225,397.12347247276716C300,374.3500180086909,375,314.33590706891823,450,316.9828027746968C525,319.6296984804753,600,405.1780215474443,675,413.00484670743845C750,420.8316718674326,862.1666666666666,347.1112281859014,900,363.94375373466164C937.8333333333334,380.7762792834219,901.6666666666666,488.9906256224436,902,514" fill="url(#gradient5)" opacity="0.9"/>
    <path d="M0,512C0,515.3751204524343,-37.5,531.8134354570659,0,532.2507227146059C37.5,532.6880099721459,150,528.7516532105863,225,514.6237235452396C300,500.49579387989303,375,437.04553634815807,450,447.4831447225264C525,457.9207530968947,600,565.1303389214897,675,577.2493737914496C750,589.3684086614094,862.1666666666666,530.7389162408601,900,520.1973539422852C937.8333333333334,509.65579164371024,901.6666666666666,515.0328923237142,902,514" fill="url(#gradient6)" opacity="0.9"/>
</svg>